<?xml version="1.0" encoding="UTF-8"?>
<svg id="Layer_1" data-name="Layer 1" xmlns="http://www.w3.org/2000/svg" viewBox="0 0 1542.29 386.87">
  <defs>
    <style>
      .cls-1 {
        fill: #fff;
      }
    </style>
  </defs>
  <g>
    <path class="cls-1" d="M60.97,221.11c-3.53,0-5.85,3.61-4.48,6.86,7.07,16.79,22.94,26.01,44.33,26.01,14.84,0,28.86-4.65,42.06-13.7,2.32-1.59,5.5-.95,6.97,1.46l13.79,22.65c1.3,2.14.76,4.91-1.22,6.45-18.9,14.61-39.87,22.05-62.94,22.05-51.31,1-91.88-38.9-90.88-86.86-1-47.95,38.9-87.87,86.85-86.86,45.95,0,78.14,33.87,78.14,77.13,0,6.77-.71,13.79-2.14,20.83-.47,2.3-2.46,3.98-4.81,3.98H60.97ZM124.32,189.26c3.07,0,5.33-2.78,4.81-5.8-2.93-17.1-17.5-27.73-35.35-27.73-16.92,0-30.96,10.25-37.44,26.8-1.27,3.23,1.07,6.73,4.54,6.73h63.45ZM460.11,288.85h-36.19c-2.51,0-4.54-2.03-4.54-4.54v-92.05c0-19.78-11.74-32.19-29.51-32.19s-30.51,12.74-30.51,31.19v93.05c0,2.51-2.03,4.54-4.54,4.54h-36.2c-2.51,0-4.54-2.03-4.54-4.54v-92.05c0-19.78-11.74-32.19-29.51-32.19s-30.51,12.41-30.51,32.19v92.05c0,2.51-2.03,4.54-4.54,4.54h-36.2c-2.51,0-4.54-2.03-4.54-4.54V127.4c0-2.51,2.03-4.54,4.54-4.54h32.51c2.51,0,4.54,2.03,4.54,4.54v.18c0,3.76,4.26,5.82,7.3,3.6,10.57-7.73,24.36-12.02,39.65-12.02,19.87,0,35.29,6.69,46.24,19.81,1.66,1.99,4.69,2.15,6.55.35,12.94-12.59,30.99-20.16,51.85-20.16,38.9,0,62.7,26.5,62.7,66.74v98.41c0,2.51-2.03,4.54-4.54,4.54ZM725.49,25.19h36.18c2.51,0,4.54,2.13,4.54,4.76v254.14c0,2.63-2.03,4.76-4.54,4.76h-36.18c-2.51,0-4.54-2.13-4.54-4.76V29.95c0-2.63,2.03-4.76,4.54-4.76ZM888.5,119.17c48.63-.67,90.21,39.24,89.21,86.52,1,47.29-40.92,87.87-89.54,86.86-48.62,1.01-89.54-39.57-88.53-86.86-1-47.28,40.25-87.53,88.87-86.52ZM888.5,160.41c-25.15,0-42.92,19.12-42.92,45.61s17.78,44.94,42.92,44.94,42.92-19.12,42.92-44.94-18.44-45.61-42.92-45.61ZM1383.14,119.54c48.63-.47,90.04,39.6,88.85,86.88.81,47.29-41.27,87.7-89.89,86.49-48.63.81-89.38-39.94-88.18-87.22-.82-47.28,40.6-87.36,89.22-86.15ZM1382.97,160.79c-25.16-.1-43,18.94-43.11,45.43-.11,25.82,17.59,45.01,42.74,45.11,24.47.1,43-18.94,43.11-44.76.11-25.82-18.26-45.68-42.74-45.78ZM597.66,121.93c-13.42-.28-26.27,2.6-37.83,7.89-2.71,1.24-5.79-.8-5.79-3.78h0c0-2.28-1.85-4.13-4.13-4.13h-37.01c-2.28,0-4.13,1.85-4.13,4.13v243.26c0,2.28,1.85,4.13,4.13,4.13h37.01c2.28,0,4.13-1.85,4.13-4.13v-78.04c0-2.98,3.08-5.02,5.79-3.78,11.45,5.25,24.18,8.1,37.5,7.83,48.62,1.01,90.55-39.57,89.54-86.86,1-47.28-40.58-87.19-89.21-86.52ZM597.66,253.73c-25.15,0-42.92-19.12-42.92-44.94s17.78-45.61,42.92-45.61,42.92,19.79,42.92,45.61-18.44,44.94-42.92,44.94Z"/>
    <g>
      <g>
        <path class="cls-1" d="M1244.61,142.47l-34.78-.14c-2.38,0-4.39,1.79-4.64,4.16l-14.42,136.68s0,.02,0,.03c-.23,2.19.95,4.35,3.06,5.02.91.29,1.89.45,2.91.45l31.55.13c4.4.02,8.09-2.8,8.55-6.51l16.27-131.76c.53-4.29-3.42-8.03-8.49-8.05Z"/>
        <circle class="cls-1" cx="1235.9" cy="86.36" r="27.97"/>
      </g>
      <g>
        <path class="cls-1" d="M1018.87,150.52l16.27,131.76c.46,3.72,4.15,6.53,8.55,6.51l31.55-.13c1.02,0,2-.16,2.91-.45,2.1-.67,3.29-2.82,3.06-5.02,0,0,0-.02,0-.03l-14.42-136.68c-.25-2.37-2.25-4.16-4.64-4.16l-34.78.14c-5.07.02-9.02,3.76-8.49,8.05Z"/>
        <circle class="cls-1" cx="1036.54" cy="86.37" r="27.97"/>
      </g>
      <g>
        <path class="cls-1" d="M1167.47,116.66l-62.69-.26c-4.7-.02-8.38,4.02-7.94,8.7l14.92,155.88c.42,4.38,4.09,7.73,8.49,7.75l31.55.13c4.4.02,8.09-3.3,8.55-7.67l14.99-155.83c.45-4.65-3.2-8.68-7.87-8.7Z"/>
        <circle class="cls-1" cx="1136.09" cy="48.19" r="34.24"/>
      </g>
    </g>
  </g>
  <g>
    <path class="cls-1" d="M1510.38,104.08h5.72l-6.14-11.23c.18-.07.38-.14.55-.22,1.49-.72,2.62-1.75,3.39-3.08.77-1.33,1.15-2.91,1.15-4.72s-.38-3.39-1.14-4.75c-.76-1.36-1.88-2.42-3.36-3.17-1.48-.76-3.31-1.13-5.48-1.13h-10.61v28.31h5.13v-10.37h5.22l5.56,10.37ZM1499.6,80.06h4.7c1.28,0,2.33.19,3.14.56s1.41.92,1.81,1.63c.4.71.6,1.57.6,2.58s-.2,1.85-.59,2.54c-.39.69-.99,1.21-1.8,1.56-.81.36-1.85.53-3.12.53h-4.73v-9.4Z"/>
    <path class="cls-1" d="M1503.92,121.5c-17.31,0-31.39-14.08-31.39-31.39s14.08-31.39,31.39-31.39,31.39,14.08,31.39,31.39-14.08,31.39-31.39,31.39ZM1503.92,63.17c-14.86,0-26.94,12.09-26.94,26.94s12.09,26.94,26.94,26.94,26.94-12.09,26.94-26.94-12.09-26.94-26.94-26.94Z"/>
  </g>
</svg>